<?xml version="1.0" encoding="utf-8"?>
<!-- Generator: Adobe Illustrator 21.0.0, SVG Export Plug-In . SVG Version: 6.00 Build 0)  -->
<svg version="1.1" id="Capa_1" xmlns="http://www.w3.org/2000/svg" xmlns:xlink="http://www.w3.org/1999/xlink" x="0px" y="0px"
	 viewBox="0 0 30 30" style="enable-background:new 0 0 30 30;" xml:space="preserve">
<style type="text/css">
	.st0{fill:#444444;}
</style>
<g>
	<path class="st0" d="M15,13c1.9,0,3.5-1.6,3.5-3.5S16.9,6,15,6s-3.5,1.6-3.5,3.5S13.1,13,15,13z M15,7c1.4,0,2.5,1.1,2.5,2.5
		S16.4,12,15,12s-2.5-1.1-2.5-2.5S13.6,7,15,7z"/>
	<path class="st0" d="M14.9,27.4l7.7-11.1c2.9-3.8,2.5-10.1-0.9-13.5C19.9,1,17.5,0,14.9,0s-5,1-6.8,2.8c-3.4,3.4-3.8,9.7-0.9,13.5
		L14.9,27.4z M8.8,3.5C10.5,1.9,12.6,1,14.9,1s4.5,0.9,6.1,2.5c3,3,3.4,8.7,0.8,12.2l-6.9,9.9L8,15.7C5.4,12.2,5.8,6.5,8.8,3.5z"/>
	<path class="st0" d="M21.1,21.5c-0.3,0-0.5,0.2-0.6,0.4s0.2,0.5,0.4,0.6c5.3,0.6,8.1,2.3,8.1,3.3c0,1.4-5.3,3.2-14,3.2
		S1,27.1,1,25.8c0-1,2.8-2.6,8.1-3.3c0.3,0,0.5-0.3,0.4-0.6c0-0.3-0.3-0.5-0.6-0.4C3.7,22.1,0,23.9,0,25.8C0,27.9,5.2,30,15,30
		s15-2.1,15-4.2C30,23.9,26.3,22.1,21.1,21.5z"/>
</g>
</svg>
